PathFileType	4	(X/Y/Z)	1_coords_data.trc
DataRate	CameraRate	NumFrames	NumMarkers	Units	OrigDataRate	OrigDataStartFrame	OrigNumFrames
30.0	30.0	6	21	m	30.0	31	51
Frame#	Time	THUMB_TIP	THUMB_IP	THUMB_MCP	THUMB_CMC	INDEX_TIP	INDEX_DIP	INDEX_PIP	INDEX_MCP	MIDDLE_TIP	MIDDLE_DIP	MIDDLE_PIP	MIDDLE_MCP	RING_TIP	RING_DIP	RING_PIP	RING_MCP	PINKY_TIP	PINKY_DIP	PINKY_PIP	PINKY_MCP	WRIST
X1	Y1	Z1	X2	Y2	Z2	X3	Y3	Z3	X4	Y4	Z4	X5	Y5	Z5	X6	Y6	Z6	X7	Y7	Z7	X8	Y8	Z8	X9	Y9	Z9	X10	Y10	Z10	X11	Y11	Z11	X12	Y12	Z12	X13	Y13	Z13	X14	Y14	Z14	X15	Y15	Z15	X16	Y16	Z16	X17	Y17	Z17	X18	Y18	Z18	X19	Y19	Z19	X20	Y20	Z20	X21	Y21	Z21
30	1.0	0.0066298098564147945	-0.028644899368286132	0.918625	-0.005179979801177978	-0.016096700668334962	0.9391019897460937	-0.021990400314331054	-0.010424400329589844	0.9637780151367188	-0.0304158992767334	0.014192399978637695	0.9844320068359375	0.023234899520874024	0.018733699798583983	0.8716669921875	0.0039628899097442615	0.01647319984436035	0.8821530151367187	-0.01477180004119873	0.014079400062561035	0.8955889892578125	-0.035856601715087894	0.011267800331115723	0.9259710083007813	0.029363399505615236	0.045482200622558595	0.8632529907226563	0.010148500442504883	0.04386759948730469	0.8764730224609375	-0.012097499847412109	0.04080459976196289	0.8938419799804688	-0.03654690170288086	0.03507849884033203	0.9251539916992187	0.024679899215698242	0.06715670013427734	0.8723300170898437	0.009315380096435547	0.06499620056152344	0.8885590209960937	-0.007354569911956787	0.06097169876098633	0.9069130249023437	-0.02937409973144531	0.05333309936523437	0.9340120239257812	0.020107599258422853	0.09248130035400391	0.9076699829101562	0.006120090007781982	0.08613520050048828	0.9192020263671875	-0.0059616599082946775	0.07944159698486328	0.9294420166015624	-0.02091510009765625	0.06750090026855468	0.9469970092773438	-0.05244290161132813	0.03704330062866211	1.0008499755859375
31	1.0333333333333334	0.007947669982910157	-0.022829799652099608	0.9170009765625	-0.004628009796142578	-0.012561100006103516	0.938260986328125	-0.021011800765991212	-0.008823659896850586	0.9634320068359375	-0.029657400131225586	0.014717300415039063	0.9846179809570312	0.024438499450683594	0.0182450008392334	0.8756069946289062	0.004260009765625	0.016548099517822264	0.8840499877929687	-0.015394399642944336	0.01443120002746582	0.8961220092773438	-0.03650799942016601	0.011371399879455566	0.9263800048828125	0.03187569999694824	0.04403929901123047	0.8682849731445312	0.011527199745178223	0.043296398162841795	0.8794119873046875	-0.011981499671936036	0.040871200561523435	0.8949340209960938	-0.03759980010986328	0.03544300079345703	0.92539599609375	0.028157400131225585	0.06400749969482422	0.8764439697265625	0.01106089973449707	0.06328730010986328	0.8906309814453125	-0.007817860126495362	0.06068370056152344	0.9072769775390624	-0.03095680046081543	0.05373479843139648	0.93410400390625	0.02293980026245117	0.0892322006225586	0.9107780151367187	0.0076331901550292965	0.08441889953613281	0.9208909912109375	-0.005820819854736328	0.0787833023071289	0.9306270141601563	-0.02226959991455078	0.0679343032836914	0.9473410034179688	-0.05204029846191406	0.03702619934082031	1.0013800048828125
32	1.0666666666666667	0.007915289878845214	-0.021678300857543947	0.9172210083007812	-0.0040720500946044924	-0.01164109992980957	0.93881201171875	-0.019847000122070312	-0.008304670333862304	0.9644660034179687	-0.028512300491333006	0.014978400230407715	0.9857930297851563	0.023939300537109375	0.017581499099731446	0.8760850219726563	0.0038923499584198	0.01585890007019043	0.884469970703125	-0.01551669979095459	0.01375	0.8966380004882812	-0.03569229888916016	0.01084119987487793	0.9274959716796874	0.0317234992980957	0.04340510177612305	0.8692369995117187	0.01134879970550537	0.042736499786376954	0.8801610107421876	-0.012114500045776367	0.040317100524902345	0.89535498046875	-0.037225601196289065	0.03500180053710938	0.9266900024414062	0.02994420051574707	0.06229840087890625	0.8792219848632813	0.012189000129699708	0.0620884017944336	0.892427001953125	-0.007789629936218262	0.06005979919433594	0.9081929931640625	-0.03134370040893555	0.05338430023193359	0.9349310302734375	0.024180099487304686	0.08689240264892578	0.9126069946289063	0.008248510360717774	0.08310420227050781	0.9218460083007812	-0.0058575901985168455	0.07814219665527344	0.9310460205078125	-0.022918100357055663	0.06798889923095704	0.9478690185546875	-0.05146500015258789	0.03707860183715821	1.0023699951171876
33	1.1	0.008034420013427735	-0.02201740074157715	0.91802001953125	-0.003769439935684204	-0.012045599937438966	0.9399080200195312	-0.01905179977416992	-0.008526610374450684	0.9656680297851562	-0.027639400482177733	0.014833200454711913	0.9868560180664062	0.023385400772094726	0.01621529960632324	0.8766199951171875	0.003434880018234253	0.014626299858093262	0.884948974609375	-0.01584220027923584	0.012685700416564942	0.8972319946289062	-0.034947601318359375	0.010191499710083008	0.928593017578125	0.03159900093078613	0.04248020172119141	0.8699869995117188	0.011178099632263183	0.041854698181152346	0.8808400268554688	-0.012254799842834473	0.03951689910888672	0.8959669799804687	-0.03678979873657227	0.034108898162841794	0.9273419799804687	0.03099239921569824	0.06128099822998047	0.8811519775390625	0.012931599617004394	0.061186298370361325	0.8937860107421876	-0.007596789836883545	0.05939590072631836	0.9089929809570313	-0.031048999786376954	0.05270790100097656	0.9353920288085937	0.02533810043334961	0.08480729675292968	0.913906982421875	0.00911769962310791	0.081652099609375	0.9226649780273437	-0.0053237199783325185	0.07720999908447265	0.931510009765625	-0.0226476993560791	0.06761430358886719	0.9482659912109375	-0.05077989959716797	0.03683649826049805	1.0033599853515625
34	1.1333333333333333	0.008688899993896484	-0.022050100326538084	0.9187589721679688	-0.003140170097351074	-0.012337699890136718	0.940802001953125	-0.0183789005279541	-0.008964380264282227	0.9666129760742187	-0.026948299407958985	0.014293299674987794	0.9877169799804687	0.02464069938659668	0.015129899978637696	0.8788300170898438	0.004399569988250732	0.013574299812316894	0.8864819946289062	-0.015119099617004394	0.0117096004486084	0.8983419799804687	-0.03442900085449219	0.009207599639892578	0.9295770263671875	0.03284769821166992	0.04101750183105469	0.87185302734375	0.0122608003616333	0.04063069915771484	0.882208984375	-0.011486000061035156	0.03846879959106445	0.8968980102539063	-0.036375598907470705	0.03328010177612305	0.9282360229492187	0.03224589920043945	0.05946129989624024	0.8830269775390625	0.01377810001373291	0.0598120002746582	0.8948460083007812	-0.00719911003112793	0.05849420166015625	0.9095670166015625	-0.03081529998779297	0.05195600128173828	0.9363099975585938	0.02663290023803711	0.0826510009765625	0.9156489868164063	0.01009160041809082	0.080206298828125	0.92368798828125	-0.004757790088653564	0.07611840057373047	0.9324080200195313	-0.022370100021362305	0.06694020080566407	0.9488930053710938	-0.050218799591064456	0.03618899917602539	1.0042000122070311
35	1.1666666666666667	0.01026259994506836	-0.021691699981689454	0.9200780029296876	-0.00194582998752594	-0.012552399635314942	0.9416859741210938	-0.01742889976501465	-0.009516019821166993	0.9674420166015625	-0.026190799713134767	0.013866900444030762	0.9887410278320312	0.02635350036621094	0.013816100120544433	0.8811420288085937	0.005822249889373779	0.01241569995880127	0.8880670166015625	-0.013955699920654296	0.010586199760437011	0.899427978515625	-0.03376089859008789	0.008123579978942872	0.9304959716796875	0.03461600112915039	0.03924169921875	0.8740390014648437	0.013799400329589843	0.039050399780273436	0.8836820068359375	-0.010327099800109863	0.03713759994506836	0.8976799926757812	-0.03574160003662109	0.03222790145874024	0.9289619750976562	0.03440909957885742	0.0570458984375	0.8859010009765625	0.015359299659729004	0.05805080032348633	0.8965079956054688	-0.006270060062408447	0.057208099365234376	0.9100150146484375	-0.030452199935913086	0.05097159957885742	0.9367680053710937	0.028315799713134766	0.0802605972290039	0.9175029907226563	0.011295999526977539	0.07845700073242187	0.924781005859375	-0.004002309799194336	0.07488649749755859	0.9328790283203126	-0.022222900390625	0.06611489868164062	0.9491790161132813	-0.049721298217773435	0.03571760177612305	1.0051199951171874
